<?xml version="1.0" encoding="utf-8"?>
<!-- Generator: Adobe Illustrator 23.0.1, SVG Export Plug-In . SVG Version: 6.00 Build 0)  -->
<svg version="1.1" id="Layer_1" xmlns="http://www.w3.org/2000/svg" xmlns:xlink="http://www.w3.org/1999/xlink" x="0px" y="0px"
	 viewBox="0 0 350 150" style="enable-background:new 0 0 350 150;" xml:space="preserve">
<style type="text/css">
	.st0{opacity:0.5;fill:none;stroke:#FFB3B3;stroke-width:3;stroke-linecap:round;stroke-miterlimit:10;enable-background:new    ;}
	.st1{opacity:0.5;enable-background:new    ;}
	.st2{fill:none;stroke:#FFB3B3;stroke-width:3;stroke-linecap:round;stroke-miterlimit:10;}
	.st3{fill:#FFFFFF;}
	.st4{opacity:0.5;fill:#FFB3B3;enable-background:new    ;}
	.st5{fill:none;stroke:#000000;stroke-width:5;stroke-linecap:round;stroke-linejoin:round;stroke-miterlimit:10;}
	.st6{fill:#FFFFFF;stroke:#000000;stroke-width:5;stroke-linecap:round;stroke-linejoin:round;stroke-miterlimit:10;}
</style>
<circle class="st0" cx="92" cy="111.2" r="5.6"/>
<g class="st1">
	<line class="st2" x1="219.6" y1="35.4" x2="219.6" y2="23.9"/>
	<line class="st2" x1="225.2" y1="29.6" x2="213.8" y2="29.6"/>
</g>
<path class="st3" d="M196.6,13.4H95.5c-5,0-9.1,4.1-9.1,9.1V84c0,5,4.1,9.1,9.1,9.1h16.4v21l20.7-21h64.1c5,0,9.1-4.1,9.1-9.1V22.5
	C205.7,17.5,201.6,13.4,196.6,13.4z"/>
<path class="st4" d="M188.6,20.4H87.5c-5,0-9.1,4.1-9.1,9.1V91c0,5,4.1,9.1,9.1,9.1h16.4v21l20.7-21h64.1c5,0,9.1-4.1,9.1-9.1V29.5
	C197.7,24.5,193.6,20.4,188.6,20.4z"/>
<path class="st5" d="M196.6,13.4H95.5c-5,0-9.1,4.1-9.1,9.1V84c0,5,4.1,9.1,9.1,9.1h16.4v21l20.7-21h64.1c5,0,9.1-4.1,9.1-9.1V22.5
	C205.7,17.5,201.6,13.4,196.6,13.4z"/>
<g>
	<line class="st5" x1="103.9" y1="36.6" x2="130.4" y2="36.6"/>
	<line class="st5" x1="103.9" y1="53.2" x2="154.4" y2="53.2"/>
	<line class="st5" x1="103.9" y1="69.8" x2="154.4" y2="69.8"/>
</g>
<g>
	<circle class="st0" cx="272" cy="138.3" r="5.6"/>
	<g class="st1">
		<line class="st2" x1="291.7" y1="123.2" x2="291.7" y2="111.7"/>
		<line class="st2" x1="297.4" y1="117.5" x2="285.9" y2="117.5"/>
	</g>
	<path class="st6" d="M255.9,49.8H155.6c-4.4,0-8,3.6-8,8v54c0,4.4,3.6,8,8,8h66.6l18,18.5l0.2-18.5h15.5c4.4,0,8-3.6,8-8v-54
		C263.9,53.4,260.3,49.8,255.9,49.8z"/>
	<g>
		<circle class="st4" cx="219.5" cy="89.3" r="22"/>
		<circle class="st5" cx="223.5" cy="85.3" r="22"/>
		<path class="st5" d="M235.7,86.2c0,6.8-5.5,12.3-12.3,12.3s-12.3-5.5-12.3-12.3"/>
		<g>
			<path class="st5" d="M212.8,78c0-2.1,1.7-3.7,3.7-3.7s3.7,1.7,3.7,3.7"/>
			<path class="st5" d="M226.7,78c0-2.1,1.7-3.7,3.7-3.7s3.7,1.7,3.7,3.7"/>
		</g>
	</g>
</g>
</svg>
